<svg id="Layer_1" height="512" viewBox="0 0 512 512" width="512" xmlns="http://www.w3.org/2000/svg" data-name="Layer 1"><path d="m255.45 384.96c5.053 0 10.062-.256 15.025-.728-107.709-10.223-192.715-126.612-192.715-126.612s44.92-61.51 110.83-99.03c24.741-14.082 52.441-24.782 81.832-27.582-4.945-.469-9.937-.728-14.972-.728-34.98 0-67.94 11.85-96.86 28.31-65.91 37.52-110.83 99.03-110.83 99.03s92.99 127.34 207.69 127.34z" fill="#d4e1f4"/><path d="m205.99 175.99a113.508 113.508 0 0 1 64.467-31.315 114.837 114.837 0 0 0 -15.007-.985 113.93 113.93 0 1 0 0 227.86 115.047 115.047 0 0 0 15.01-.982 113.924 113.924 0 0 1 -64.47-194.578z" fill="#d4e1f4"/><g fill="#0635c9"><path d="m104.718 325.871c50.274 42.584 102.4 65.092 150.737 65.092s100.463-22.508 150.736-65.092c37.7-31.931 60.832-63.388 61.8-64.711a6 6 0 0 0 0-7.077c-.967-1.323-24.1-32.78-61.8-64.71-50.273-42.584-102.4-65.093-150.736-65.093s-100.463 22.509-150.737 65.093c-37.7 31.93-60.832 63.387-61.8 64.71a6 6 0 0 0 0 7.077c.968 1.323 24.103 32.78 61.8 64.711zm7.756-127.342c33.526-28.4 85.547-62.249 142.981-62.249 57.348 0 109.294 33.756 142.773 62.073a423.2 423.2 0 0 1 57.363 59.269 423.267 423.267 0 0 1 -57.363 59.268c-33.479 28.318-85.425 62.073-142.773 62.073s-109.294-33.755-142.773-62.073a423.162 423.162 0 0 1 -57.365-59.27 422.41 422.41 0 0 1 57.157-59.091z"/><path d="m255.455 377.554a119.933 119.933 0 1 0 -119.933-119.932 120.069 120.069 0 0 0 119.933 119.932zm0-227.865a107.933 107.933 0 1 1 -107.933 107.933 108.055 108.055 0 0 1 107.933-107.933z"/><path d="m255.455 306.308a48.686 48.686 0 1 0 -48.686-48.686 48.741 48.741 0 0 0 48.686 48.686zm0-85.372a36.686 36.686 0 1 1 -36.686 36.686 36.727 36.727 0 0 1 36.686-36.686z"/></g><path d="m256 21.069a234.931 234.931 0 0 0 -166.121 401.053 234.931 234.931 0 0 0 332.242-332.244 233.392 233.392 0 0 0 -166.121-68.809zm-157.636 392.567a222.926 222.926 0 0 1 -4.183-310.971l315.154 315.154a222.926 222.926 0 0 1 -310.971-4.183zm319.455-4.3-315.154-315.155a222.928 222.928 0 0 1 315.154 315.154z" fill="#1ae5be"/></svg>