<svg height="512" viewBox="0 0 512 512" width="512" xmlns="http://www.w3.org/2000/svg" xmlns:xlink="http://www.w3.org/1999/xlink"><linearGradient id="a" gradientUnits="userSpaceOnUse" x1="7.761" x2="518.83" y1="504.239" y2="-6.83" data-name="New Gradient Swatch 1"><stop offset="0" stop-color="#003f8a"/><stop offset=".518" stop-color="#00d7df"/><stop offset="1" stop-color="#006df0"/></linearGradient><g fill="url(#a)"><path d="m256 144a112 112 0 1 0 112 112 112.127 112.127 0 0 0 -112-112zm0 208a96 96 0 1 1 96-96 96.108 96.108 0 0 1 -96 96z"/><path d="m256 176a80 80 0 1 0 80 80 80.091 80.091 0 0 0 -80-80zm0 144a64 64 0 1 1 64-64 64.072 64.072 0 0 1 -64 64z"/><path d="m502.277 251.04c-1.121-1.418-27.958-35.143-71.64-69.34-25.734-20.145-51.967-36.215-77.971-47.762-32.783-14.557-65.307-21.938-96.666-21.938s-63.883 7.381-96.666 21.938c-26 11.547-52.237 27.617-77.971 47.762-43.682 34.2-70.519 67.922-71.64 69.34a8 8 0 0 0 0 9.92c1.121 1.418 27.958 35.143 71.64 69.34 25.734 20.145 51.967 36.215 77.971 47.762 32.783 14.557 65.307 21.938 96.666 21.938s63.883-7.381 96.666-21.938c26-11.547 52.237-27.617 77.971-47.762 43.682-34.2 70.519-67.922 71.64-69.34a8 8 0 0 0 0-9.92zm-81.5 66.66c-38.638 30.246-98.587 66.3-164.777 66.3-66.066 0-125.909-35.928-164.478-66.067a470.38 470.38 0 0 1 -65.11-61.933 469.323 469.323 0 0 1 64.814-61.7c38.635-30.246 98.584-66.3 164.774-66.3 66.066 0 125.909 35.928 164.478 66.067a470.488 470.488 0 0 1 65.11 61.933 469.4 469.4 0 0 1 -64.814 61.7z"/></g></svg>