<?xml version="1.0" encoding="iso-8859-1"?>
<!-- Generator: Adobe Illustrator 19.0.0, SVG Export Plug-In . SVG Version: 6.00 Build 0)  -->
<svg version="1.1" id="Capa_1" xmlns="http://www.w3.org/2000/svg" xmlns:xlink="http://www.w3.org/1999/xlink" x="0px" y="0px"
	 viewBox="0 0 470.204 470.204" style="enable-background:new 0 0 470.204 470.204;" xml:space="preserve">
<g>
	
		<linearGradient id="SVGID_1_" gradientUnits="userSpaceOnUse" x1="-11.519" y1="599.2466" x2="-11.519" y2="507.3466" gradientTransform="matrix(5.2245 0 0 -5.2245 295.2831 3121.6147)">
		<stop  offset="0" style="stop-color:#00EFD1"/>
		<stop  offset="1" style="stop-color:#00ACEA"/>
	</linearGradient>
	<path style="fill:url(#SVGID_1_);" d="M235.102,321.829c48.065,0,87.249-39.184,87.249-87.771V87.249
		C322.351,39.184,283.167,0,235.102,0s-87.249,39.184-87.249,87.249V234.58C147.853,282.645,187.037,321.829,235.102,321.829z
		 M179.2,87.249c0-30.825,25.078-55.902,55.902-55.902s55.902,25.078,55.902,55.902v146.808c0,31.347-25.078,56.424-55.902,56.424
		S179.2,265.404,179.2,234.58V87.249z"/>
	
		<linearGradient id="SVGID_2_" gradientUnits="userSpaceOnUse" x1="-11.519" y1="599.2466" x2="-11.519" y2="507.3466" gradientTransform="matrix(5.2245 0 0 -5.2245 295.2831 3121.6147)">
		<stop  offset="0" style="stop-color:#00EFD1"/>
		<stop  offset="1" style="stop-color:#00ACEA"/>
	</linearGradient>
	<path style="fill:url(#SVGID_2_);" d="M361.535,159.869c-8.882,0-15.673,6.792-15.673,15.673v59.037
		c0,61.127-49.633,110.759-110.759,110.759S124.343,295.706,124.343,234.58v-59.037c0-8.882-6.792-15.673-15.673-15.673
		s-15.673,6.792-15.673,15.673v59.037c0,73.143,55.38,133.224,126.433,141.061v63.216h-41.273c-8.882,0-15.673,6.792-15.673,15.673
		s6.792,15.673,15.673,15.673h113.894c8.882,0,15.673-6.792,15.673-15.673s-6.792-15.673-15.673-15.673h-41.273v-63.216
		c71.053-7.837,126.433-67.918,126.433-141.061v-59.037C377.208,166.661,370.416,159.869,361.535,159.869z"/>
	
		<linearGradient id="SVGID_3_" gradientUnits="userSpaceOnUse" x1="-11.519" y1="599.2466" x2="-11.519" y2="507.3466" gradientTransform="matrix(5.2245 0 0 -5.2245 295.2831 3121.6147)">
		<stop  offset="0" style="stop-color:#00EFD1"/>
		<stop  offset="1" style="stop-color:#00ACEA"/>
	</linearGradient>
	<path style="fill:url(#SVGID_3_);" d="M221.518,124.343h27.167c8.882,0,15.673-6.792,15.673-15.673s-6.792-15.673-15.673-15.673
		h-27.167c-8.882,0-15.673,6.792-15.673,15.673S212.637,124.343,221.518,124.343z"/>
	
		<linearGradient id="SVGID_4_" gradientUnits="userSpaceOnUse" x1="-11.519" y1="599.2466" x2="-11.519" y2="507.3466" gradientTransform="matrix(5.2245 0 0 -5.2245 295.2831 3121.6147)">
		<stop  offset="0" style="stop-color:#00EFD1"/>
		<stop  offset="1" style="stop-color:#00ACEA"/>
	</linearGradient>
	<path style="fill:url(#SVGID_4_);" d="M221.518,176.588h27.167c8.882,0,15.673-6.792,15.673-15.673s-6.792-15.673-15.673-15.673
		h-27.167c-8.882,0-15.673,6.792-15.673,15.673S212.637,176.588,221.518,176.588z"/>
	
		<linearGradient id="SVGID_5_" gradientUnits="userSpaceOnUse" x1="-11.519" y1="599.2466" x2="-11.519" y2="507.3466" gradientTransform="matrix(5.2245 0 0 -5.2245 295.2831 3121.6147)">
		<stop  offset="0" style="stop-color:#00EFD1"/>
		<stop  offset="1" style="stop-color:#00ACEA"/>
	</linearGradient>
	<path style="fill:url(#SVGID_5_);" d="M221.518,228.833h27.167c8.882,0,15.673-6.792,15.673-15.673s-6.792-15.673-15.673-15.673
		h-27.167c-8.882,0-15.673,6.792-15.673,15.673S212.637,228.833,221.518,228.833z"/>
</g>
<g>
</g>
<g>
</g>
<g>
</g>
<g>
</g>
<g>
</g>
<g>
</g>
<g>
</g>
<g>
</g>
<g>
</g>
<g>
</g>
<g>
</g>
<g>
</g>
<g>
</g>
<g>
</g>
<g>
</g>
</svg>
